<svg version="1.1" xmlns="http://www.w3.org/2000/svg" viewBox="0 0 200 200" width="400" height="400">
  <g stroke-linecap="round"><g transform="translate(85.89721159480312 115.83316430810467) rotate(0 14.328816411637696 -13.399124998168247)"><path d="M0 0 C0.85 -3.76, 3.93 -14.03, 5.08 -22.59 C6.23 -31.15, 7.11 -42.58, 6.91 -51.34 C6.71 -60.1, 3.37 -71.26, 3.9 -75.15 C4.43 -79.03, 11.76 -81.05, 10.09 -74.63 C8.43 -68.21, -0.02 -43.27, -6.08 -36.62 C-12.14 -29.98, -29.78 -31.17, -26.27 -34.77 C-22.75 -38.37, 2.25 -48.58, 15 -58.22 C27.76 -67.87, 46.82 -87.89, 50.26 -92.64 C53.71 -97.39, 39.91 -103.83, 35.66 -86.72 C31.42 -69.61, 30.04 -15.42, 24.79 10.01 C19.54 35.43, 8.12 62.14, 4.15 65.84 C0.19 69.54, -7.47 47.43, 1 32.21 C9.46 16.99, 45.94 -15.87, 54.92 -25.48 M0 0 C0.85 -3.76, 3.93 -14.03, 5.08 -22.59 C6.23 -31.15, 7.11 -42.58, 6.91 -51.34 C6.71 -60.1, 3.37 -71.26, 3.9 -75.15 C4.43 -79.03, 11.76 -81.05, 10.09 -74.63 C8.43 -68.21, -0.02 -43.27, -6.08 -36.62 C-12.14 -29.98, -29.78 -31.17, -26.27 -34.77 C-22.75 -38.37, 2.25 -48.58, 15 -58.22 C27.76 -67.87, 46.82 -87.89, 50.26 -92.64 C53.71 -97.39, 39.91 -103.83, 35.66 -86.72 C31.42 -69.61, 30.04 -15.42, 24.79 10.01 C19.54 35.43, 8.12 62.14, 4.15 65.84 C0.19 69.54, -7.47 47.43, 1 32.21 C9.46 16.99, 45.94 -15.87, 54.92 -25.48" stroke="#334477" stroke-width="10" fill="none"/></g></g></svg>